<svg width="40" height="40" viewBox="0 0 40 40" fill="none" xmlns="http://www.w3.org/2000/svg">
<path fill-rule="evenodd" clip-rule="evenodd" d="M0.799988 16.2665C0.799988 7.7246 7.72479 0.799805 16.2667 0.799805H23.7333C32.2752 0.799805 39.2 7.7246 39.2 16.2665C39.2 24.8083 32.2752 31.7331 23.7333 31.7331H22.9867V39.1998C22.9867 39.1998 0.799988 35.4665 0.799988 16.2665ZM23.9371 7.71394C25.0357 8.44354 25.8645 9.62647 25.8645 11.2126C25.8645 12.8958 25.1851 14.1331 24.0853 14.8905C23.6514 15.1848 23.1721 15.406 22.6667 15.5454V17.1795C22.6667 17.3897 22.6253 17.5977 22.5449 17.7918C22.4645 17.986 22.3466 18.1623 22.198 18.3109C22.0495 18.4595 21.8731 18.5773 21.6789 18.6577C21.4848 18.7382 21.2768 18.7795 21.0667 18.7795C20.8565 18.7795 20.6485 18.7382 20.4544 18.6577C20.2602 18.5773 20.0839 18.4595 19.9353 18.3109C19.7867 18.1623 19.6689 17.986 19.5884 17.7918C19.508 17.5977 19.4667 17.3897 19.4667 17.1795V14.1961C19.4666 13.7901 19.6208 13.3993 19.8981 13.1028C20.1753 12.8063 20.5549 12.6263 20.96 12.5993C21.5509 12.5598 21.9989 12.4425 22.2699 12.2558C22.3792 12.1833 22.4675 12.0832 22.5259 11.9657C22.5899 11.8377 22.6645 11.6094 22.6645 11.2115C22.6645 10.8787 22.5333 10.6227 22.1653 10.3774C21.7472 10.1001 21.0752 9.89527 20.2677 9.86967C19.4699 9.84407 18.6944 9.99981 18.1237 10.2761C17.552 10.5534 17.3429 10.8649 17.2832 11.0942C17.2348 11.3017 17.1454 11.4975 17.0203 11.6701C16.8952 11.8426 16.7369 11.9884 16.5547 12.0989C16.3725 12.2094 16.17 12.2824 15.9592 12.3136C15.7484 12.3448 15.5334 12.3336 15.327 12.2806C15.1206 12.2275 14.9269 12.1338 14.7572 12.0049C14.5875 11.876 14.4452 11.7145 14.3388 11.5299C14.2324 11.3452 14.1639 11.1412 14.1374 10.9297C14.1109 10.7183 14.1269 10.5037 14.1845 10.2985C14.5515 8.86807 15.6224 7.93367 16.7285 7.39714C17.8379 6.85847 19.1424 6.63127 20.3701 6.67074C21.5883 6.70914 22.8896 7.01634 23.9371 7.71394ZM21.0667 25.3331C21.6325 25.3331 22.1751 25.1084 22.5751 24.7083C22.9752 24.3082 23.2 23.7656 23.2 23.1998C23.2 22.634 22.9752 22.0914 22.5751 21.6913C22.1751 21.2912 21.6325 21.0665 21.0667 21.0665C20.5009 21.0665 19.9582 21.2912 19.5582 21.6913C19.1581 22.0914 18.9333 22.634 18.9333 23.1998C18.9333 23.7656 19.1581 24.3082 19.5582 24.7083C19.9582 25.1084 20.5009 25.3331 21.0667 25.3331Z" fill="red"/>
</svg>